<svg xmlns="http://www.w3.org/2000/svg" viewBox="0 0 60.67 214.7" x="0px" y="0px"><path d="M14.49,49.5c0,.75,0,1.53,0,2.32,.64,.31,1.25,.7,1.8,1.19l38.91,34.18c5.28,4.89-1.18,12.93-7.1,8.85L14.59,71.56c.04,6.03,.07,11.92,.08,16.89,.02,25.96-.27,51.93-.66,77.89-.32,7.18-10.74,7.3-11.12,0-.47-32.45-.86-64.91-.54-97.36C2.22,49.19,3.24,27.68,.07,8.1-1.01-.23,10.4-3.27,13.62,4.45c1.08,2.74,2.84,4.66,4.75,6.41l5.69,5.3c3.78,3.55,7.63,7.01,11.45,10.52,7.7,6.93,15.44,13.82,23.43,20.42,2.03,1.68,2.32,4.69,.64,6.72-1.7,2.06-4.79,2.32-6.81,.56-7.82-6.79-15.88-13.3-23.98-19.76-4.08-3.19-8.13-6.43-12.25-9.57l-1.46-1.12c-.52,8.53-.49,17.06-.59,25.58Z"/><text x="0" y="186.76" fill="#000000" font-size="5px" font-weight="bold" font-family="'Helvetica Neue', Helvetica, Arial-Unicode, Arial, Sans-serif">Created by Vital Intent</text><text x="0" y="191.76" fill="#000000" font-size="5px" font-weight="bold" font-family="'Helvetica Neue', Helvetica, Arial-Unicode, Arial, Sans-serif">from the Noun Project</text></svg>